<svg width="42" height="61" viewBox="0 0 42 61" fill="none" xmlns="http://www.w3.org/2000/svg">
<path d="M1.47461 14.825C1.47461 14.5598 1.57997 14.3054 1.7675 14.1179L14.5925 1.29289C14.78 1.10536 15.0344 1 15.2996 1L26.6996 1C26.9648 1 27.2192 1.10536 27.4067 1.29289L40.2317 14.1179C40.4192 14.3054 40.5246 14.5598 40.5246 14.825L40.5246 46.175C40.5246 46.4402 40.4192 46.6946 40.2317 46.8821L27.4067 59.7071C27.2192 59.8946 26.9648 60 26.6996 60L15.2996 60C15.0344 60 14.78 59.8946 14.5925 59.7071L1.7675 46.8821C1.57996 46.6946 1.47461 46.4402 1.47461 46.175L1.47461 14.825Z" fill="#32B6E0" stroke="#052360" stroke-width="2" stroke-linejoin="round"/>
<path d="M2.47461 46.1752L2.47461 14.8252L13.1621 18.3877L13.1621 42.6127L2.47461 46.1752Z" fill="#62C6FF"/>
<path d="M15.2996 2L2.47461 14.825L13.1621 18.3875L20.9996 9.125L26.6996 2L15.2996 2Z" fill="#C1E9FF"/>
<path d="M28.8373 42.6125L20.9998 51.875L15.2998 59L26.6998 59L39.5248 46.175L39.5248 14.825L26.6998 2L20.9998 9.125L28.8373 18.3875L28.8373 42.6125Z" fill="#2D88F3"/>
<path d="M39.5244 14.8252L39.5244 46.1752L28.8369 42.6127L28.8369 18.3877L39.5244 14.8252Z" fill="#4E5CDE"/>
<circle cx="36.675" cy="21.9499" r="1.425" fill="#6473FC"/>
<circle cx="34.893" cy="28.0063" r="1.06875" fill="#6473FC"/>
<circle cx="37.3873" cy="26.2252" r="0.7125" fill="#6473FC"/>
<circle cx="33.8248" cy="24.0875" r="0.7125" fill="#6473FC"/>
<circle cx="37.3873" cy="17.6749" r="0.7125" fill="#6473FC"/>
<circle cx="37.3873" cy="34.775" r="0.7125" fill="#6473FC"/>
<circle cx="37.3873" cy="31.2125" r="0.7125" fill="#6473FC"/>
<path d="M13.1621 18.3875L13.1621 42.6125L20.9996 51.875L28.8371 42.6459L28.8371 18.3875L20.9996 9.125L13.1621 18.3875Z" fill="#38ACFF"/>
<path d="M13.1621 42.6125L13.1621 18.3875L20.9996 9.125L28.8371 18.3875L13.1621 42.6125Z" fill="#83CBFF"/>
<path d="M20.9994 11.2627L14.5869 19.1002V34.0627" stroke="#C2E6FF" stroke-width="2" stroke-linecap="round" stroke-linejoin="round"/>
<path d="M3.89941 16.9624V44.0374" stroke="#9BDBFF" stroke-width="2" stroke-linecap="round" stroke-linejoin="round"/>
<path d="M5.32422 14.1123L16.0117 3.4248" stroke="#E2FBFF" stroke-width="2" stroke-linecap="round" stroke-linejoin="round"/>
<circle cx="34.1811" cy="47.9564" r="1.06875" fill="#1B73DA"/>
<circle cx="27.0561" cy="55.0814" r="1.06875" fill="#1B73DA"/>
<circle cx="29.9057" cy="52.2313" r="1.06875" fill="#1B73DA"/>
<circle cx="26.6998" cy="50.4498" r="0.7125" fill="#1B73DA"/>
<circle cx="31.6871" cy="50.4498" r="0.7125" fill="#1B73DA"/>
<circle cx="29.55" cy="47.5998" r="1.425" fill="#1B73DA"/>
</svg>
