<svg width="43" height="61" viewBox="0 0 43 61" fill="none" xmlns="http://www.w3.org/2000/svg">
<path d="M1.97461 14.825C1.97461 14.5598 2.07997 14.3054 2.2675 14.1179L15.0925 1.29289C15.28 1.10536 15.5344 1 15.7996 1L27.1996 1C27.4648 1 27.7192 1.10536 27.9067 1.29289L40.7317 14.1179C40.9192 14.3054 41.0246 14.5598 41.0246 14.825L41.0246 46.175C41.0246 46.4402 40.9192 46.6946 40.7317 46.8821L27.9067 59.7071C27.7192 59.8946 27.4648 60 27.1996 60L15.7996 60C15.5344 60 15.28 59.8946 15.0925 59.7071L2.2675 46.8821C2.07996 46.6946 1.97461 46.4402 1.97461 46.175L1.97461 14.825Z" fill="#E9B465" stroke="#604105" stroke-width="2" stroke-linejoin="round"/>
<path d="M2.97461 46.1752L2.97461 14.8252L13.6621 18.3877L13.6621 42.6127L2.97461 46.1752Z" fill="#EEC18B"/>
<path d="M15.7996 2L2.97461 14.825L13.6621 18.3875L21.4996 9.125L27.1996 2L15.7996 2Z" fill="#FFEEC1"/>
<path d="M29.3373 42.6125L21.4998 51.875L15.7998 59L27.1998 59L40.0248 46.175L40.0248 14.825L27.1998 2L21.4998 9.125L29.3373 18.3875L29.3373 42.6125Z" fill="#E39130"/>
<path d="M40.0244 14.8252L40.0244 46.1752L29.3369 42.6127L29.3369 18.3877L40.0244 14.8252Z" fill="#CA693F"/>
<circle cx="37.175" cy="21.9499" r="1.425" fill="#DE7A50"/>
<circle cx="35.393" cy="28.0063" r="1.06875" fill="#DE7A50"/>
<circle cx="37.8873" cy="26.2252" r="0.7125" fill="#DE7A50"/>
<circle cx="34.3248" cy="24.0875" r="0.7125" fill="#DE7A50"/>
<circle cx="37.8873" cy="17.6749" r="0.7125" fill="#DE7A50"/>
<circle cx="37.8873" cy="34.775" r="0.7125" fill="#DE7A50"/>
<circle cx="37.8873" cy="31.2125" r="0.7125" fill="#DE7A50"/>
<path d="M13.6621 18.3875L13.6621 42.6125L21.4996 51.875L29.3371 42.6459L29.3371 18.3875L21.4996 9.125L13.6621 18.3875Z" fill="#FFB547"/>
<path d="M13.6621 42.6125L13.6621 18.3875L21.4996 9.125L29.3371 18.3875L13.6621 42.6125Z" fill="#FFCB7C"/>
<path d="M21.4994 11.2627L15.0869 19.1002V34.0627" stroke="#FFEAC2" stroke-width="2" stroke-linecap="round" stroke-linejoin="round"/>
<path d="M4.39941 16.9624V44.0374" stroke="#FFD5A3" stroke-width="2" stroke-linecap="round" stroke-linejoin="round"/>
<path d="M5.82422 14.1123L16.5117 3.4248" stroke="#FFFEFD" stroke-width="2" stroke-linecap="round" stroke-linejoin="round"/>
<circle cx="34.6811" cy="47.9564" r="1.06875" fill="#CA8028"/>
<circle cx="27.5561" cy="55.0814" r="1.06875" fill="#CA8028"/>
<circle cx="30.4057" cy="52.2313" r="1.06875" fill="#CA8028"/>
<circle cx="27.1998" cy="50.4498" r="0.7125" fill="#CA8028"/>
<circle cx="32.1871" cy="50.4498" r="0.7125" fill="#CA8028"/>
<circle cx="30.05" cy="47.5998" r="1.425" fill="#CA8028"/>
</svg>
