<svg width="40" height="41" viewBox="0 0 40 41" fill="none" xmlns="http://www.w3.org/2000/svg">
<path d="M38.2971 4.17906C34.4543 3.68287 30.6559 2.45752 26.8337 1.75691C22.9965 1.05372 18.9753 0.683334 15.0919 0.135213C14.8075 0.488817 14.4788 0.791207 14.1045 1.04267C16.8656 1.19875 19.6417 1.96506 22.3791 2.34319C25.4103 2.76221 28.6768 3.10778 31.6409 3.8956C31.6414 3.86964 31.6457 3.84282 31.6445 3.81742C31.8257 3.78142 31.8878 3.86146 31.9221 3.96804C32.238 4.04637 37.2216 4.75587 37.1332 5.23083C37.0804 5.51472 34.9295 5.09571 34.8706 5.08566C34.7734 5.14649 34.6709 5.18924 34.5624 5.21448C34.4465 5.19512 34.3879 5.12913 34.4845 5.01709C33.6304 4.84768 32.6878 4.74741 31.8502 4.52894C31.7601 4.69964 31.5956 4.76835 31.3566 4.73435C31.4202 4.6325 31.4695 4.53338 31.5124 4.43569C28.54 3.57442 25.2718 3.11122 22.2166 2.63684C20.7376 2.40746 19.2437 2.25267 17.762 2.01914C16.9865 1.89692 13.9715 0.988169 13.6898 1.05889C13.6579 1.02905 13.6258 0.999357 13.5941 0.969662C13.785 0.666984 13.9427 0.348236 14.0666 0.0134244C12.0296 -0.142792 11.1948 1.10322 9.54208 1.73282C9.69514 1.66511 9.82352 1.56598 9.92666 1.43501C9.5778 1.67672 9.17958 1.95014 8.74593 2.24636C8.70835 2.3069 8.624 2.36212 8.55184 2.37891C7.64022 3.01353 6.85196 3.76435 5.90204 4.35206C5.92069 4.36554 5.93905 4.37903 5.95755 4.39223C6.40541 4.28163 6.64884 4.4278 6.81065 4.67152C7.27529 4.41116 12.536 0.339916 12.7199 1.22414C12.7086 1.16891 6.48186 5.304 6.14476 5.52792C6.0475 5.81238 5.97391 5.84882 5.54629 6.05539C5.44372 6.16857 5.3413 6.28175 5.23887 6.39493C5.1878 6.39321 5.13688 6.39177 5.08581 6.39048C4.86045 6.57625 2.0563 9.33249 1.73167 9.01662C1.33446 8.62844 4.77467 6.00303 5.00161 5.78972C4.87006 5.8207 4.74354 5.80736 4.62146 5.74998C4.78141 5.64339 4.94107 5.5371 5.10073 5.4308C5.31547 5.40843 5.47226 5.18034 5.65588 5.04765C5.65359 5.04593 5.65172 5.04421 5.64899 5.04234C5.65344 5.03718 5.65803 5.03158 5.66234 5.02642C5.5559 4.90993 5.61328 4.74497 5.77867 4.54859C5.89874 4.70509 6.01608 4.86332 6.13127 5.02355C6.36352 4.91711 6.59003 4.79962 6.81094 4.67123C6.64927 4.42765 6.40541 4.28134 5.9577 4.39223C5.93934 4.37875 5.92069 4.36526 5.90233 4.35177C3.51948 5.82643 0.0416896 8.1037 0.0122824 11.1445C0.0515876 11.1517 0.0306432 11.3437 0.00969949 11.3764C-0.0838297 17.3866 0.513351 23.489 1.18384 29.5001C1.40317 31.4664 1.17078 33.4167 1.33503 35.4089C1.21984 37.5873 2.68963 37.5574 4.13273 37.7555C6.40139 38.0669 8.93155 38.2197 11.2321 38.3187C11.3022 38.0409 11.9206 37.5879 12.0294 37.4931C9.47882 37.3948 6.7712 37.3451 4.24778 36.9365C4.21177 37.0016 4.14062 37.0226 4.03461 37.0005C4.03533 36.9659 4.0359 36.9316 4.03676 36.8971C3.12414 36.6931 4.88068 36.61 5.18493 36.6003C6.13687 36.5689 7.09296 36.7605 8.03715 36.8502C9.4857 36.9876 10.9361 37.0673 12.3814 37.2072C12.3779 37.2096 13.6485 36.4326 13.6975 36.5518C13.7635 36.7119 13.1047 37.1893 13.0183 37.2685C13.7813 37.3413 25.9831 38.6047 25.8385 39.4198C25.7642 39.8384 20.462 38.7215 20.1232 38.6543C20.0499 38.7489 19.944 38.8008 19.8062 38.81C19.7557 38.7616 19.7784 38.6852 19.8466 38.6056C17.474 38.2148 15.0807 37.8536 12.6914 37.5701C12.4096 37.8573 12.1031 38.1154 11.7713 38.344C16.5731 38.5873 21.2844 40.2248 26.1127 40.555C30.0819 40.8269 34.3166 38.0612 37.248 35.5923C37.1488 35.3808 37.8631 34.4972 37.8228 34.1434C37.7069 34.0892 37.5915 34.0351 37.4759 33.9806C37.8965 33.6647 37.8965 33.6647 38.0438 33.9446C38.2399 34.0193 38.5343 33.9914 38.5069 34.2996C38.737 33.9753 38.9227 33.6451 39.0742 33.3097L39.0616 33.3041L39.0838 33.2887C39.9587 31.3309 39.6325 29.1953 39.6305 26.9919C39.6276 23.9235 39.8956 20.8222 39.8154 17.763C39.5628 17.7633 39.4184 17.6196 39.2654 17.4872C39.3991 17.1983 39.5703 16.9359 39.7787 16.6998C39.6773 13.5955 40.9602 6.40382 38.2971 4.17906ZM36.4925 4.34532C36.5363 4.32825 36.5802 4.3116 36.6241 4.29468C36.5468 4.5275 36.4614 4.39165 36.4925 4.34532ZM7.37369 3.53067L7.37183 3.53138C7.36408 3.5113 7.35648 3.49179 7.34873 3.47185C7.35705 3.49136 7.36537 3.51101 7.37369 3.53067ZM7.67637 3.89073C7.62186 3.93677 7.14173 4.08998 7.32965 3.71271C7.42591 3.57198 7.56391 3.57929 7.74379 3.73465C7.7524 3.76477 7.70047 3.83736 7.67637 3.89073ZM7.97159 3.17004L8.0129 3.10491L8.03801 3.1478L7.97159 3.17004ZM8.65369 2.62249C8.51584 2.41377 9.01002 2.05744 9.17901 2.29198C9.16638 2.5783 8.99152 2.68847 8.65369 2.62249ZM13.983 37.8565L13.9763 37.8024L14.0382 37.7945L13.983 37.8565ZM37.3438 11.3277C37.3895 11.4485 37.4353 11.5692 37.4811 11.6899C37.0237 12.0232 37.0299 11.9424 36.8929 11.352C37.0197 11.2622 37.1374 11.1615 37.2455 11.0502C37.2504 11.0186 37.2372 11.0033 37.2055 11.0037L37.2052 11.0035C36.8127 10.4333 37.4212 10.7499 37.3442 10.5591C37.5917 10.8518 37.6469 10.98 37.3438 11.3277ZM33.5112 32.6814C33.4531 32.3691 34.9063 31.5705 34.9129 31.5451C34.8275 31.874 34.8648 31.993 34.6709 32.1654C34.3001 32.4531 33.9832 32.6474 33.5112 32.6814ZM34.5742 32.2946C34.4977 32.4501 34.4127 32.5926 34.3176 32.7205C34.4079 32.5812 34.4933 32.4392 34.5742 32.2946ZM31.9648 31.2736L32.0016 31.2872C31.8019 31.3777 31.4748 31.4387 31.8022 31.6741C31.6384 31.7631 31.4609 31.7976 31.2701 31.7771C31.1694 31.7415 31.0691 31.7058 30.9686 31.6699C31.231 31.5267 31.4074 31.3157 31.4976 31.0367C31.6244 30.9012 31.7904 30.7754 32.0017 30.8022C32.0962 30.7312 32.1903 30.6599 32.2846 30.5892C32.1903 30.6599 32.0962 30.7312 32.0016 30.8025C31.8851 31.0046 31.875 31.1607 31.9648 31.2736ZM31.7881 33.0152C31.6616 33.1345 31.5203 33.241 31.4037 33.3688C31.5204 33.2408 31.6614 33.1345 31.7881 33.0152ZM30.7428 31.9856C30.7352 32.0175 30.7358 32.0509 30.7177 32.0806C30.6973 32.1137 30.6639 32.1441 30.6343 32.1754C30.6372 32.1763 30.6382 32.1783 30.6415 32.1787C30.6374 32.1816 30.6345 32.1843 30.6303 32.187C30.7018 32.2704 30.7755 32.3514 30.8422 32.4394C30.7719 32.3527 30.7001 32.2669 30.6269 32.1829C30.6292 32.1802 30.6319 32.178 30.6343 32.1754C30.609 32.0776 30.6451 32.0143 30.7428 31.9856ZM30.319 21.2576C30.3185 21.2613 30.3147 21.2646 30.311 21.2681C30.3119 21.2645 30.3126 21.2613 30.3135 21.2578C30.1372 21.2563 29.5646 21.3404 29.4759 21.0662C29.349 20.6796 30.0329 20.9156 30.0366 20.9165C30.1181 20.8426 30.1993 20.7684 30.2807 20.6946L30.2803 20.694L30.2816 20.6936L30.2807 20.6946C30.3651 20.8843 30.3761 21.0718 30.3135 21.2573C30.3162 21.2575 30.319 21.2576 30.319 21.2576ZM29.1944 32.2516C29.1933 32.2525 29.1921 32.2533 29.191 32.2542C29.1828 32.2507 29.1861 32.2504 29.1944 32.2516C29.2921 32.1773 29.3899 32.1031 29.4875 32.0291C29.5213 32.0532 29.5592 32.0736 29.588 32.1028C29.9119 32.4283 29.2686 32.2624 29.1944 32.2516ZM30.165 18.1592C30.2538 17.9633 30.3924 17.8634 30.5806 17.8606C30.8267 18.0557 29.9177 18.4545 30.165 18.1592ZM30.5365 10.666C30.4529 10.8615 30.3691 11.0566 30.2858 11.2518C30.1776 11.3276 30.095 11.3236 30.0372 11.2414C29.998 11.2827 29.9845 11.2831 30.0175 11.2095C30.0237 11.2214 30.0303 11.2316 30.0372 11.2414C30.1719 11.0991 30.6138 10.4676 30.5365 10.666ZM30.3888 17.2241C29.9253 17.918 29.926 17.9165 29.4998 17.9003C29.3807 17.8956 29.2551 17.9033 29.1266 17.9052C29.2083 17.5976 30.1843 17.3615 30.3888 17.2241ZM30.0161 35.1204C30.3609 35.1065 29.3503 36.3931 28.7418 36.1894C28.8147 35.571 29.3843 35.147 30.0161 35.1204ZM30.3859 31.702C30.338 31.9146 30.267 32.0701 30.1393 32.2156C30.0585 32.307 29.5164 32.2517 30.3859 31.702ZM30.0446 30.7993C30.1169 30.6732 30.1894 30.5473 30.2621 30.4215C30.3442 30.6429 30.3391 30.652 30.0446 30.7993ZM30.1877 26.2045C30.0937 26.0039 30.2292 25.6655 30.4187 25.9797C30.4319 26.1824 30.3549 26.2573 30.1877 26.2045ZM30.3112 21.2685L30.3113 21.2682C30.4536 21.2203 30.5955 21.1725 30.7378 21.1246C30.9611 20.8871 32.2776 19.7207 31.4798 21.2586C31.2195 21.2765 30.972 21.2321 30.7378 21.1246C30.5955 21.1727 30.4532 21.2205 30.3112 21.2685ZM32.8651 20.0915C33.8241 20.8717 33.8529 16.035 33.8539 15.6935H33.8532L33.8539 15.6913C33.8539 15.5482 33.5728 14.2049 33.8582 14.1629C34.0757 14.1312 34.1679 14.8519 34.204 15.0231C34.4792 14.8675 34.7357 14.8773 34.9736 15.0524C34.9694 15.22 34.5435 15.8371 34.282 15.8095C34.2064 17.1264 33.9886 22.7709 32.0403 19.4917C31.6923 18.9063 31.3021 13.39 32.5473 13.9778C32.6923 14.0462 31.6312 19.074 32.8651 20.0915ZM33.3679 14.3957C33.3863 14.257 33.7713 14.3515 33.6137 14.5836C33.5021 14.6872 33.4201 14.6246 33.3679 14.3957ZM33.939 13.2518C34.5426 12.75 34.0756 13.9856 34.0447 13.8252C34.0159 13.6757 33.4044 13.6959 33.939 13.2518ZM34.7165 22.2137C34.5082 22.3691 34.4379 22.3339 34.5053 22.108C34.7237 21.9469 34.794 21.9822 34.7165 22.2137ZM34.0312 22.8817C34.04 22.9091 34.0043 22.9684 33.9904 23.0094C33.8436 23.1186 33.7231 23.1047 33.6289 22.9678C33.7046 22.7908 33.8389 22.7621 34.0312 22.8817ZM31.7375 22.7526C31.7819 22.6515 31.8607 22.772 31.7426 22.8106C31.7399 22.7912 31.7286 22.7724 31.7375 22.7526ZM31.7366 20.0374C31.7871 19.9855 31.8088 19.9907 31.8013 20.0525C31.793 20.0668 31.7632 20.077 31.7428 20.0894C31.7409 20.072 31.7385 20.0549 31.7366 20.0374ZM32.8562 24.3504C32.8908 24.3837 32.9254 24.4165 32.9601 24.4494C32.8446 24.6311 32.7291 24.8127 32.6131 24.9945C32.2928 25.184 31.9986 25.4082 31.731 25.6665C31.6723 25.5097 31.6199 25.3471 31.414 25.3396C31.266 25.4161 31.1552 25.3963 31.0432 25.3805C30.9763 25.2695 30.9095 25.1584 30.8426 25.0474C30.9297 24.9843 31.0168 24.9212 31.1039 24.858C31.2591 24.5955 31.4149 24.3322 31.5705 24.0691C32.2625 24.7145 32.1221 24.2284 32.8562 24.3504ZM32.4424 21.5771C32.4364 21.5828 32.4302 21.586 32.4239 21.5914C32.4243 21.5834 32.4247 21.5755 32.425 21.5677C32.4301 21.5695 32.4352 21.5698 32.4401 21.5715C32.44 21.4435 32.4846 21.412 32.5744 21.4768C32.5481 21.5817 32.4942 21.5875 32.4401 21.5715C32.4401 21.5715 32.4412 21.5754 32.4424 21.5771ZM31.7048 10.2438C31.5851 10.4702 31.4226 10.6933 31.312 10.865C30.3617 11.528 32.0049 9.67534 31.7048 10.2438ZM30.8429 27.9363C31.0562 28.0043 31.3778 28.1432 31.2568 28.4475C31.2221 28.4509 31.1875 28.4542 31.1526 28.4576C30.9079 28.38 30.8046 28.2065 30.8429 27.9363ZM31.5567 28.4558C31.7903 28.2403 31.6536 28.924 31.4367 28.7204C31.4182 28.6358 31.4619 28.5433 31.5567 28.4558ZM32.1363 27.5826C31.9965 27.6589 31.8541 27.6941 31.7134 27.7522C31.6494 27.9062 31.546 28.0127 31.4027 28.0716C31.2947 27.8967 31.3903 27.7491 31.69 27.6291C31.8184 27.4426 31.9811 27.296 32.1777 27.19C32.253 26.9265 32.8613 25.3464 33.1799 25.4967C33.4963 25.6462 31.9801 30.4781 33.3599 31.4282C35.1544 32.6636 34.148 25.7317 34.491 25.6817C35.23 25.5729 34.7301 29.6072 34.7042 29.9439C34.5656 31.4968 34.0114 32.9698 32.7181 31.1229C31.9856 30.0769 32.2094 28.7427 32.1363 27.5826ZM34.9036 32.1853C34.9156 32.176 34.9275 32.1641 34.9394 32.1533C34.9599 32.1312 34.9734 32.1182 34.9878 32.1067C35.3056 31.7726 35.6072 31.0324 36.0622 31.4358C35.8232 31.728 35.5696 31.89 35.2965 31.8806C35.0741 32.0535 35.0268 32.0754 34.9879 32.1067C34.9718 32.1235 34.9556 32.1388 34.9394 32.1533C34.9304 32.1632 34.9203 32.1744 34.9076 32.1886L34.9073 32.1885C34.8341 32.1948 34.7608 32.2015 34.6875 32.208C34.7607 32.2015 34.8341 32.1949 34.9073 32.1885C34.9059 32.1876 34.9047 32.1866 34.9036 32.1853ZM35.0338 11.7034C35.3967 11.4015 35.3967 11.4015 35.64 11.6255C35.6558 11.8363 35.5588 11.9763 35.3494 12.0458C35.2282 11.9463 35.1227 11.8322 35.0338 11.7034ZM36.0509 13.5666C36.0451 13.575 36.041 13.5829 36.0342 13.5915C36.0335 13.5915 36.0329 13.5912 36.0329 13.5912C35.9616 13.942 35.7892 14.2376 35.5154 14.4782C34.9926 14.015 35.316 13.3768 36.0319 13.5907C36.0348 13.5828 36.0375 13.5749 36.0401 13.5668L36.0342 13.5915L36.0408 13.5661C36.0446 13.5668 36.0473 13.5657 36.0509 13.5666C36.0403 13.5822 36.4469 11.9248 36.8743 12.639C37.0355 12.9083 36.3107 13.618 36.0509 13.5666ZM34.526 6.48086C34.6082 6.32421 34.7205 6.25377 34.8634 6.26955C34.8786 6.31531 34.8944 6.36093 34.9094 6.40655C34.9126 6.40425 34.4847 6.7306 34.526 6.48086ZM33.9192 7.23224C33.6617 7.3592 33.4504 7.55873 33.2687 7.80461C33.0357 7.93543 32.9734 7.88795 33.0817 7.66201C32.2559 8.35459 34.3226 6.46421 33.9192 7.23224ZM37.1919 5.52017C37.7281 5.99054 32.5835 8.99022 32.1855 9.23868C31.7857 9.48799 27.6113 12.8139 27.3016 12.5151C26.9982 12.2224 28.8293 10.9054 28.9874 10.746C29.2878 10.4411 37.2112 5.53753 37.1919 5.52017ZM28.1174 22.7386L28.1116 22.7568C28.1102 22.7549 28.1086 22.7529 28.1072 22.7511C28.1105 22.7469 28.1138 22.7425 28.1174 22.7386ZM28.2059 7.87734C28.1003 8.27111 27.8461 8.48958 27.4436 8.53319C27.3647 8.38774 27.3723 8.2437 27.4674 8.10054C27.6655 7.68927 27.912 7.61468 28.2059 7.87734ZM26.6152 4.58072C26.8008 4.33226 27.0351 4.15682 27.3175 4.0544C27.5168 4.17174 27.4993 4.32408 27.2646 4.51172C27.0414 4.72632 26.7801 4.84538 26.4819 4.86905C26.5247 4.77165 26.546 4.65617 26.6152 4.58072ZM24.2812 6.01005C24.3751 5.89457 24.4227 5.89687 24.4247 6.01636C24.3822 6.04319 24.3398 6.07044 24.2973 6.09741C24.2911 6.06729 24.2688 6.02382 24.2812 6.01005ZM23.4657 3.73006C23.523 3.75474 23.5601 3.79275 23.499 3.89589C23.1632 4.08266 23.396 3.70051 23.4657 3.73006ZM22.5217 3.15985C22.7548 2.98743 22.8212 3.0524 22.7208 3.35479C22.4673 3.50025 22.4009 3.43542 22.5217 3.15985ZM17.5421 3.55104C17.7584 3.44073 17.8167 3.49667 17.7181 3.71844C17.5043 3.82632 17.4456 3.77052 17.5421 3.55104ZM17.1255 5.66448C17.7331 5.28663 22.8991 5.07089 22.5 6.13141C22.4579 6.2433 19.252 5.71096 18.9699 5.73004C16.9963 5.86402 15.824 7.30095 18.5038 7.87791C19.4503 8.08146 20.5447 8.02867 21.4879 7.90029C21.6844 7.87332 24.3127 6.65299 24.2358 6.62301C25.0692 6.95868 22.3718 8.16955 22.4385 8.15104C21.3775 8.44641 19.993 8.41025 18.9108 8.27068C18.9109 8.27441 18.9108 8.27799 18.9114 8.28086C18.8614 8.33351 18.8385 8.32834 18.8425 8.26565C18.8441 8.26479 18.8455 8.26365 18.8471 8.26279C17.68 8.11274 14.7196 6.98709 17.1255 5.66448ZM20.143 6.42821L19.7556 6.73835C19.8759 6.61986 20.0067 6.51485 20.143 6.42821ZM20.7098 8.5481C20.7056 8.60635 20.682 8.65827 20.6385 8.70389C20.1473 8.99882 20.5976 8.176 20.7098 8.5481ZM19.8693 10.0104C19.7751 9.87416 20.1186 9.46088 20.2172 9.53548C20.3345 9.62413 19.9032 10.0601 19.8693 10.0104ZM15.9217 10.3536C16.0653 10.3757 16.1118 10.4241 15.9781 10.5243C15.8193 10.5055 15.8313 10.5418 15.9217 10.3536ZM15.6397 7.4642C15.6403 7.53994 15.6179 7.62759 15.606 7.7095C15.9366 8.10887 14.922 9.11488 14.6387 8.31845C14.3771 7.58327 15.6354 6.82671 15.6397 7.4642ZM12.7221 6.47039C12.8773 6.12539 13.1158 5.90619 13.4383 5.81195C13.5618 6.01966 13.5328 6.24345 13.3517 6.48315C13.4829 6.5117 13.7882 6.77048 13.2505 6.77235C13.0606 6.99842 12.8528 7.0274 12.6261 6.85942C12.6582 6.72974 12.6901 6.59992 12.7221 6.47039ZM13.1924 9.97199C13.1506 10.0404 13.1088 10.1086 13.0671 10.177C13.0453 10.1352 13.0235 10.0935 13.0018 10.0515C13.0653 10.0251 13.129 9.99853 13.1924 9.97199ZM12.357 6.05323L12.3452 6.1185L12.295 6.10674L12.357 6.05323ZM11.4537 2.78616C11.4495 2.80022 11.8937 1.61418 12.2064 2.0847C12.4365 2.42955 11.8069 3.41376 11.4567 3.02759C11.4548 2.9814 11.4213 2.89031 11.4537 2.78616ZM10.8987 9.33608C11.0208 9.27038 11.1425 9.20439 11.2643 9.13841C11.4306 9.44898 11.0078 9.88578 10.655 9.63804C10.6521 9.46073 10.6494 9.28401 10.6468 9.10699C10.7308 9.18345 10.8149 9.26005 10.8987 9.33608ZM10.985 8.5867C10.9396 8.63877 10.8932 8.69012 10.8457 8.74047C10.6499 8.62628 10.8742 8.59645 10.985 8.5867ZM10.6046 5.12597C10.5862 5.11851 10.5815 5.09226 10.5594 5.05769C10.6185 4.93404 11.4076 4.15281 11.5535 4.34747C11.8337 4.72173 10.8439 5.22151 10.6046 5.12597ZM11.898 5.59003C12.053 5.6335 12.177 5.70867 12.1926 5.89372C12.1087 5.97204 12.0248 6.05036 11.9406 6.12912C11.8368 6.15565 11.733 6.18162 11.6293 6.20816C11.5432 6.01163 11.639 5.80535 11.898 5.59003ZM10.7336 3.88657C10.7501 3.8728 11.402 3.36498 11.4261 3.58216C11.4508 3.80552 10.7676 4.78012 10.4389 4.50398C10.4178 4.25323 10.5158 4.04752 10.7336 3.88657ZM9.16179 3.68416C9.17212 3.66881 9.62399 3.11423 9.74979 3.2528C10.0453 3.57642 8.86098 4.13315 9.16179 3.68416ZM9.08706 5.48847C9.26938 5.0683 9.89683 5.28792 9.6861 5.7276C9.25002 5.98351 9.05019 5.90376 9.08706 5.48847ZM7.5355 8.33838C8.01778 7.8191 8.38587 7.22851 8.8485 6.68871L8.84864 6.7088C9.15663 6.95854 9.15189 7.37124 8.93213 7.68439C9.19306 7.47151 9.17872 8.06985 8.75884 7.84033C8.82167 7.81135 7.6068 8.40566 7.52331 8.36406L7.5355 8.33838ZM8.43852 8.89196C8.39448 8.69644 8.65585 8.56102 8.79671 8.72656C8.95236 8.9106 8.48643 9.10641 8.43852 8.89196ZM6.81567 8.17385L6.82227 8.22779L6.76073 8.23567L6.81567 8.17385ZM6.688 8.57063C6.69532 8.70404 6.70292 8.83759 6.70995 8.97143C6.95468 8.64494 7.18132 8.5811 7.39019 8.78006C7.30498 9.06653 7.01205 9.13138 6.77235 9.00815C6.55703 9.0466 6.42291 8.98204 6.37026 8.81521C6.4044 8.62686 6.51027 8.5451 6.688 8.57063ZM1.56527 14.5816C1.70886 14.5275 1.81286 14.4935 1.88473 14.4835C1.88932 14.4765 1.89348 14.4701 1.89793 14.4634C1.89822 14.463 1.89865 14.4624 1.89893 14.462C1.88114 14.4254 1.86264 14.3895 1.84356 14.3541C1.91629 14.2976 2.16561 14.0788 2.261 14.2157C2.36414 14.3616 1.93565 14.4577 1.89922 14.4617L1.89908 14.462C1.89879 14.4625 1.89836 14.463 1.89793 14.4634C1.89363 14.4703 1.88932 14.4766 1.8853 14.4833C2.0583 14.4595 2.04396 14.5795 1.92877 14.9303C1.85791 14.8622 1.78676 14.7941 1.71603 14.7259C1.66568 14.6779 1.61533 14.6297 1.56527 14.5816ZM2.32311 13.6568C2.34018 13.8887 2.22557 13.9906 1.97998 13.9625C1.95115 13.6872 2.06562 13.5855 2.32311 13.6568ZM0.660962 10.8836C0.888904 10.7511 0.943701 10.7991 0.825069 11.0279C0.594832 11.161 0.540178 11.113 0.660962 10.8836ZM1.73411 35.8427L1.73425 35.8424C1.82348 35.7105 1.78733 35.6871 1.94283 35.7271C1.91026 35.8618 1.84055 35.9004 1.73411 35.8427ZM1.60142 27.8412C1.47619 27.1808 -0.203898 10.2516 1.24997 10.4893C0.710881 10.4018 2.3574 36.8505 2.69465 36.7918C1.96908 36.917 1.72995 28.4978 1.60142 27.8412ZM2.73998 12.1326C2.74715 12.1118 2.78244 12.0867 2.80468 12.0632C2.952 12.1237 2.72477 12.1754 2.73998 12.1326ZM2.85287 12.8556C2.99302 12.6109 3.1075 12.8087 2.85287 12.8556V12.8556ZM3.39583 14.7787C3.38105 14.0982 4.42064 13.8371 4.8385 13.3405C4.99616 13.159 5.07032 12.903 5.33197 12.8165C5.3872 13.0914 4.36555 14.6205 4.23644 14.9097C5.03374 15.0784 3.41936 15.8701 3.39583 14.7787ZM3.96805 19.1554C3.55549 18.7316 4.34475 17.58 4.9273 18.3061C4.77783 18.8521 4.35795 18.9805 3.96805 19.1554ZM3.85214 19.94C3.81599 19.7514 3.94983 19.5527 4.10576 19.3527C4.20202 19.6333 4.20862 19.8727 3.85214 19.94ZM4.43914 32.0645C4.65059 31.7766 3.817 32.8967 3.73954 32.7494C3.69392 32.6663 4.32596 31.527 4.59062 31.6741C4.61544 31.8276 4.56509 31.9579 4.43914 32.0645ZM4.63696 28.7722C4.27446 29.0306 4.41691 28.2234 4.41648 28.1062C4.41662 28.1737 4.42164 28.2538 4.42881 28.3551C4.47041 28.312 4.51173 28.2689 4.55318 28.2261C4.80537 28.3952 4.83334 28.577 4.63696 28.7722ZM4.70495 21.6541C4.89603 21.3493 5.19555 21.0133 5.60137 21.0629L5.66104 21.0469C5.80119 20.8017 5.96674 20.5769 6.15681 20.373C4.36942 18.7647 4.5681 15.6866 7.1053 15.1306C7.92052 14.9521 8.65298 15.0028 9.40035 15.4163C10.1286 15.8189 10.597 17.8247 10.1959 17.6075C9.39691 17.1413 10.0503 16.0441 8.51727 15.6404C7.64912 15.4122 6.45734 15.5318 5.80909 16.2108C4.9022 17.1611 5.27689 18.8883 6.07662 19.768C6.6695 20.4206 8.85295 20.3024 8.96986 20.4732C9.49474 21.2542 6.58888 20.6951 6.53336 20.6596C6.46809 20.7273 6.40325 20.7956 6.33856 20.8636C6.33727 20.8593 6.33856 20.8545 6.33741 20.8499C6.14576 21.0655 5.94694 21.2774 5.82759 21.5266L5.82716 21.5267C5.82716 21.5267 5.82644 21.5282 5.82616 21.5287L5.82156 21.5115C5.8154 21.5194 5.80908 21.5271 5.80306 21.5347C5.55202 21.6135 5.48503 21.418 5.31533 21.3755C5.09126 21.4174 4.88771 21.5104 4.70495 21.6541ZM10.086 10.9222C10.0827 10.9073 10.1087 10.8733 10.1219 10.8479C10.3133 10.7779 10.0985 10.978 10.086 10.9222ZM10.3544 23.5247C10.354 23.5409 10.3289 23.5697 10.315 23.5927C10.0548 23.7717 10.3573 23.3114 10.3544 23.5247ZM7.78396 18.3987C7.74465 18.5275 7.33094 18.943 7.33869 18.5412C6.88008 17.7504 7.9921 17.4396 8.01075 17.5024C7.92985 17.7848 7.79672 18.0443 7.61067 18.2809C7.71094 18.2711 7.82785 18.2542 7.78396 18.3987ZM7.30541 19.1259C7.23799 19.2562 7.17042 19.386 7.10271 19.5161C7.07173 19.4886 7.03386 19.4671 7.01105 19.4324C6.79243 19.0957 7.1327 19.0855 7.30541 19.1259ZM6.67997 18.9835C6.39565 19.3033 6.39565 19.3033 6.14117 19.2252C6.27243 18.9953 6.44442 18.6353 6.67997 18.9835ZM5.68658 16.8428C5.69763 16.9401 5.65129 17.03 5.53467 17.1105C5.5853 17.0213 5.63609 16.9319 5.68658 16.8428ZM5.3456 27.2244L5.34603 27.2243L5.35378 27.2013L5.35349 27.2012C5.38648 27.1421 5.43167 27.0919 5.48919 27.0504C5.61299 27.0643 5.73679 27.0782 5.86058 27.0926L5.86087 27.0927H5.86101C5.95928 27.1842 6.05855 27.2739 6.18134 27.3274C6.19224 27.3321 6.204 27.3354 6.21519 27.3396C6.25478 27.3542 6.29624 27.3661 6.34157 27.3721C6.37069 27.376 6.4011 27.3777 6.43295 27.3773C6.4011 27.3777 6.37055 27.3759 6.34157 27.3721C6.29624 27.3661 6.25493 27.3542 6.21519 27.3396C6.20386 27.3354 6.1921 27.3321 6.18134 27.3274C6.05855 27.2739 5.95942 27.1844 5.86087 27.0929C5.66162 27.2416 5.48718 27.2956 5.3456 27.2244ZM8.70462 33.5785C7.21618 33.3256 6.03301 31.9512 5.94995 30.4559C5.65674 30.5468 5.86603 30.1958 5.94794 30.1417C5.99485 28.9695 6.87664 27.7106 8.01477 27.3509C8.16855 26.9622 8.4444 26.688 8.84247 26.5278C8.60636 27.0877 8.78954 26.8359 8.92639 27.2347C9.68753 27.3405 10.2539 27.4449 10.737 28.0649C10.902 28.2654 11.5527 29.5972 11.1146 29.6209C10.9168 29.6358 10.2358 28.1204 9.75008 27.9785C9.31457 29.3776 9.03513 28.5984 8.60133 28.4969C8.54152 28.551 8.27427 28.8881 8.141 28.6299C8.04059 28.4348 8.46893 28.4431 8.53621 28.4766C8.84735 28.3446 8.90875 28.0831 9.01519 27.809C8.48858 27.676 7.93228 27.8613 7.52187 28.1983C7.53421 28.2562 7.38517 28.6516 7.20973 28.448C5.92614 29.5355 6.10603 31.4662 7.30598 32.5045C7.84851 32.974 8.49145 33.2649 9.22835 33.2093C9.51224 33.1877 11.4118 32.1287 11.3239 32.0846C12.0935 32.479 9.14386 33.6531 8.70462 33.5785ZM11.0044 12.2138C10.9977 12.2229 10.999 12.22 11.0038 12.2118C10.9769 12.1179 10.9496 12.0238 10.9224 11.9295C10.9675 11.8761 11.0167 11.8261 11.0691 11.7792C11.4901 11.4537 11.0474 12.1375 11.0038 12.2118C11.004 12.2125 11.0041 12.2131 11.0044 12.2138ZM10.2979 32.1804C10.3203 32.0833 10.3427 31.9861 10.3646 31.8888C10.4075 32.0082 10.3851 32.1054 10.2979 32.1804ZM10.0766 31.9039C10.0041 31.9188 9.93155 31.9331 9.85925 31.9478C9.90845 31.8963 9.95794 31.8449 10.0074 31.7931C10.0305 31.83 10.0536 31.867 10.0766 31.9039ZM10.8562 31.7306C10.8105 31.6886 10.7686 31.6392 10.7253 31.5927C11.0001 31.4565 11.262 31.4722 11.5106 31.6395C11.1642 31.9172 10.9934 31.8565 10.8562 31.7306ZM11.8221 24.0401C11.6475 24.1665 11.5967 24.1042 11.6693 23.8533C11.9122 23.6851 11.9629 23.7473 11.8221 24.0401ZM12.7947 24.0259C12.8335 23.9832 12.9012 23.9642 12.9552 23.9351C13.226 24.1379 12.4485 24.4053 12.7947 24.0259ZM13.6628 17.6454C13.9131 17.693 13.9478 17.8837 13.9922 18.059C14.3966 19.6587 11.3582 20.382 13.6628 17.6454ZM14.1725 35.0765C14.091 35.1068 14.0712 35.0698 14.1132 34.9654C14.1546 34.9579 14.1953 34.9509 14.236 34.9437C14.216 34.9883 14.1977 35.0326 14.1725 35.0765ZM11.3102 10.8939C11.3134 11.0354 11.2256 11.1331 11.0464 11.1869C10.9496 11.0689 10.8529 10.9506 10.7561 10.8327C9.98548 10.7803 9.21645 10.7742 8.44885 10.673C8.22062 10.8882 7.59403 10.9971 7.64237 10.5977C6.46465 10.5379 5.24977 10.2909 4.07736 10.3147C3.58303 10.3247 1.4343 10.7367 1.73081 10.4688C3.18352 9.23538 5.8428 10.1203 7.53364 10.2381C7.14561 9.77317 8.70017 10.1735 8.7719 10.1C8.7719 10.1 8.78294 10.0967 8.79499 10.0932C8.82052 10.0688 8.8462 10.0446 8.87217 10.0205L8.83329 10.0814C8.83329 10.0814 8.81278 10.0878 8.79499 10.0932C8.70835 10.1635 8.64466 10.2524 8.60392 10.3597C12.5156 10.9519 16.5337 10.9104 20.4491 11.5525C20.4501 11.4809 20.451 11.4092 20.4513 11.3378C20.4847 11.2858 20.5203 11.2349 20.5572 11.1846C20.7237 11.124 20.8902 11.0635 21.0568 11.0034C21.1852 10.8274 21.3133 10.6507 21.4409 10.4739C21.3133 10.6507 21.1852 10.8274 21.0574 11.0037C21.0218 11.4261 20.9056 11.4395 20.5712 11.5715C22.1212 11.7802 23.6574 11.8715 25.1828 12.2946C25.2967 12.177 25.4109 12.0596 25.525 11.942C25.6257 12.0804 25.7262 12.219 25.8268 12.3573C26.0521 12.1376 26.2776 11.9176 26.503 11.698C27.0787 12.1422 25.7186 13.4126 25.2051 13.4974C25.1633 13.1767 25.2481 12.9042 25.4594 12.6803C25.433 12.648 25.4062 12.6159 25.3794 12.5838C22.2055 12.8734 18.5365 11.8652 15.3895 11.422C15.5978 11.5408 15.6697 11.7041 15.605 11.9122C15.4146 12.2647 14.6347 11.7181 14.9104 11.3477C13.7176 11.1529 12.5105 11.0282 11.3102 10.8939ZM20.496 16.1448C20.3147 16.3093 19.9869 16.3615 19.7834 16.5159C19.7422 16.4845 19.7012 16.453 19.6596 16.4218C19.7914 16.27 19.9234 16.1184 20.0554 15.9666C19.9032 15.947 19.7504 15.9362 19.5979 15.9168C19.5428 15.9567 19.4876 15.996 19.4324 16.0355C19.3317 16.1075 19.2312 16.1798 19.1323 16.2564C19.231 16.1799 19.3315 16.1075 19.4324 16.0355C19.4874 15.996 19.5425 15.9569 19.5975 15.917C18.0882 15.7239 16.9191 17.0126 16.9962 18.4734C17.0464 19.4209 19.4778 21.3091 19.4757 21.3246C19.3819 21.9459 17.7341 20.774 17.5532 20.5914C16.7707 19.8032 16.5563 18.7165 16.7068 17.6484C16.8088 17.1888 17.0921 16.7009 17.3952 16.3528C17.2255 16.4145 17.0543 16.4424 16.8805 16.4287C17.8052 15.6956 19.0456 15.1365 20.3767 15.5287C20.2836 15.6193 22.0492 14.1154 22.1048 14.2607C22.2321 14.5947 20.7279 15.5371 20.6566 15.6053C20.6541 15.6166 20.6523 15.6279 20.6498 15.6394C21.3493 15.9471 23.0609 19.2439 21.7551 19.1324C22.1988 19.1644 20.8192 16.3744 20.496 16.1448ZM21.2711 23.7267C20.9513 23.9865 20.6875 23.9127 20.4794 23.505C20.5435 23.1699 20.2945 23.0372 20.3163 22.7294C20.2335 22.6838 20.1506 22.6385 20.0683 22.5931L20.0688 22.592C20.1503 22.6379 20.2331 22.6839 20.3163 22.7294C20.6474 22.4333 20.9787 22.0952 21.3075 22.2424C21.1261 22.4531 20.5648 23.0486 21.2678 22.8889C21.3793 22.6831 21.5346 22.5601 21.734 22.5195C21.7017 22.628 21.6693 22.7361 21.637 22.8446C21.1971 23.2807 21.1971 23.2807 21.2711 23.7267ZM20.6042 24.4188C20.5952 24.4218 20.5956 24.3812 20.5919 24.3609C20.6828 24.2843 20.687 24.3035 20.6042 24.4188ZM20.3817 22.2428C20.3126 22.3932 20.1509 22.447 20.072 22.5858L20.0592 22.5867C20.2089 22.4514 20.1634 22.2897 20.3817 22.2428ZM19.8204 22.2729C19.5468 22.2161 20.0862 20.7689 20.5013 21.7901L20.4999 21.7947C20.3258 22.018 20.0993 22.1771 19.8204 22.2729ZM19.4484 17.9616C19.3175 18.1572 19.1868 18.3529 19.0561 18.5487C18.9257 18.6255 18.7956 18.7023 18.6656 18.7788C18.6407 18.8402 18.6133 18.9003 18.5837 18.9595C18.3166 19.0826 18.1889 19.1396 18.1409 19.1112C18.134 19.1072 18.1287 19.1013 18.125 19.0937C18.1288 19.1013 18.1341 19.107 18.1409 19.1112C18.1889 19.1396 18.3166 19.0826 18.5836 18.9591C18.611 18.899 18.6384 18.8389 18.6653 18.7792L18.6656 18.7788C18.8573 18.454 19.0485 18.13 19.2397 17.8051C19.3096 17.8576 19.3789 17.9095 19.4484 17.9616ZM19.2036 23.5012C19.2001 23.4806 19.2216 23.4446 19.2321 23.4158C19.4916 23.2874 19.2226 23.6164 19.2036 23.5012ZM19.0666 26.7533C18.9713 26.861 18.8758 26.9724 18.7617 26.9365C18.5504 26.7086 19.449 26.3212 19.0666 26.7533ZM18.7807 26.066L18.8238 25.9929L18.8534 26.0269L18.7807 26.066ZM18.1866 24.5024C18.1516 24.6491 18.0799 24.6898 17.9709 24.6244C18.0049 24.5746 18.036 24.5049 18.0748 24.4806C18.1069 24.4606 18.1488 24.4934 18.1866 24.5024ZM17.8761 28.6516C17.8363 28.6662 17.7963 28.6808 17.7564 28.6955C17.7584 28.6737 17.7607 28.652 17.7633 28.6305C17.8032 28.616 17.8435 28.5992 17.8822 28.5899C17.8861 28.5887 17.8785 28.6299 17.8761 28.6516ZM17.3865 24.7231C17.281 24.7995 17.1971 24.8284 17.1709 24.73C17.2427 24.7278 17.3148 24.7255 17.3865 24.7231ZM16.3462 16.3126C16.4312 16.1208 16.439 15.9295 16.6196 15.7375C16.9111 15.888 16.6134 16.3384 16.3462 16.3126ZM17.3469 13.3745C17.2287 13.4118 17.2901 13.3379 17.3172 13.2857C17.3146 13.2785 17.3122 13.2712 17.3096 13.264L17.3277 13.2577C17.3268 13.2652 17.3221 13.2753 17.3171 13.2857C17.3267 13.3155 17.3368 13.3448 17.3469 13.3745ZM17.3175 13.2553C17.2985 13.2513 17.2785 13.2488 17.2625 13.2409C17.2785 13.2488 17.2985 13.2512 17.3176 13.255L17.3175 13.2553ZM19.2427 15.1611C19.3066 15.2053 19.3707 15.2491 19.4348 15.2931C19.2333 15.4099 19.1572 15.3805 19.2427 15.1611ZM16.0663 22.9299C16.1274 22.8848 16.1904 22.8496 16.2343 22.8582C16.1903 22.8496 16.1273 22.8848 16.0663 22.9299ZM15.8691 14.3129C15.8774 14.2709 15.886 14.2287 15.8945 14.1868C16.0993 14.1789 15.9817 14.2601 15.8691 14.3129ZM15.4059 37.1724C15.3699 37.2068 15.3115 37.2139 15.2644 37.2332C15.0771 37.0143 15.7648 36.8321 15.4059 37.1724ZM15.081 33.5603C15.1482 33.5746 15.7695 32.8539 16.0601 33.6551C16.2624 34.2157 14.5719 33.4521 15.081 33.5603ZM16.5231 27.4432C16.3981 27.641 16.066 27.724 15.8638 27.718C15.3702 27.2108 16.8491 26.9279 16.5231 27.4432ZM16.0577 26.8052C16.0122 26.8097 15.9851 26.7675 15.9497 26.747C15.6289 25.8905 17.1382 26.2761 17.27 26.0197C16.7268 27.0795 16.8671 26.7284 16.0577 26.8052ZM19.1077 36.9467C19.4259 36.7298 19.4352 36.7314 19.4431 37.0025C19.3144 37.0377 19.2027 37.0193 19.1077 36.9467ZM19.4996 37.9346C19.2453 37.742 20.13 37.2597 20.0888 37.4296C19.9852 37.7462 19.7888 37.9147 19.4996 37.9346ZM21.6907 35.0397C21.6508 35.1566 21.5607 35.2092 21.4213 35.1982C21.4229 35.1127 21.4249 35.0271 21.4266 34.942C21.6469 34.8216 21.7349 34.8541 21.6907 35.0397ZM22.4972 31.5927C22.7288 31.5995 21.1496 29.1202 20.8648 28.8979C20.861 28.9303 20.8547 28.9629 20.8544 28.9868C20.6327 29.2272 20.3632 29.352 20.0452 29.3622C19.762 29.1123 20.4758 28.7342 20.5749 28.7223C18.1657 27.5462 16.845 31.0831 17.9878 32.8471C18.3783 33.4497 19.075 33.9268 19.7974 34.0137C20.0823 34.0479 21.1528 33.552 21.291 33.704C21.4084 33.8328 21.0842 34.0769 21.0169 34.1286C17.9244 36.1569 15.4785 29.5203 18.8568 28.1544C19.9349 27.7186 21.0842 28.2194 21.8278 29.0072C22.0208 29.211 23.483 31.622 22.4972 31.5927ZM19.3035 31.4048C19.6008 31.3223 19.9116 31.2044 20.1363 31.3097C19.8805 31.6071 19.5531 31.7454 19.2738 31.9898C19.2195 31.8238 19.248 31.6206 19.3035 31.4048ZM19.2036 28.9257C19.201 28.9224 19.2367 28.8827 19.2546 28.8599C19.3484 28.9336 19.3375 28.9045 19.2736 28.9845C19.2493 28.9659 19.2228 28.9495 19.2036 28.9257ZM24.1239 18.4008C24.0407 18.5912 23.906 18.7373 23.7199 18.8393C23.6164 19.012 23.4672 19.102 23.2724 19.1103C22.8835 18.8468 24.162 18.0024 24.1239 18.4008ZM23.5819 20.4672C23.3713 20.514 23.7046 19.9889 23.8529 19.909V19.9095L23.8531 19.9092C23.9421 20.1018 23.8047 20.4184 23.5819 20.4672ZM23.8997 25.1046C23.9632 25.1286 24.0265 25.1534 24.09 25.1779C23.9127 25.4901 23.6986 25.7707 23.4468 26.02C23.4137 25.5468 23.523 25.4228 23.8997 25.1046ZM23.5792 34.1395C23.5646 34.1288 23.5509 34.1172 23.539 34.104C23.6676 33.9609 23.7958 33.8176 23.9239 33.6748L23.9127 33.6739C24.0645 33.5471 24.2022 33.4074 24.3259 33.254C24.4814 33.6208 23.7717 34.0585 23.5792 34.1395ZM24.109 31.0492C24.2361 30.8893 24.366 30.8574 24.4992 30.9535C24.466 30.9889 23.8783 31.376 24.109 31.0492ZM24.7021 21.5246C24.1133 22.0364 24.3741 22.4967 23.9932 23.0456C23.937 23.0483 23.4639 23.2686 23.4383 23.2361C23.4805 22.8697 23.6276 22.5458 23.8796 22.2641C23.7271 22.1661 23.5459 22.1281 23.3351 22.1998C23.3049 22.2101 23.2742 22.2226 23.2428 22.2375C23.2741 22.2226 23.3049 22.2101 23.3351 22.1998C23.5459 22.1279 23.7271 22.1659 23.8797 22.2638C24.0968 21.9789 24.3134 21.694 24.5304 21.4091C24.5334 20.3784 23.0603 21.432 24.6688 19.9743C24.8054 19.9914 24.9423 20.0079 25.0998 20.0271C25.0275 20.2781 24.7196 20.8267 25.0422 21.0258C25.8391 21.5167 25.095 21.6454 24.7021 21.5246ZM25.1147 23.3272C25.256 23.2843 25.3135 23.3673 25.3976 23.4104C25.1236 23.5664 25.1236 23.5664 25.1147 23.3272ZM25.2996 30.1273C25.2589 30.103 25.2177 30.0789 25.1769 30.0547C25.2726 29.953 25.3686 29.8511 25.4644 29.7495C25.5032 29.7701 25.5419 29.7903 25.5806 29.8109C25.4869 29.9161 25.3933 30.0215 25.2996 30.1273ZM26.6467 38.3889C26.646 38.3864 26.8347 37.6958 27.0518 38.0557C27.2142 38.3248 26.6987 38.4968 26.6467 38.3889ZM25.6813 33.0637C26.169 32.5992 26.6548 32.4111 27.1398 32.3484C27.0275 32.6565 26.1421 33.4356 25.6813 33.0637ZM27.5518 39.8547C27.5205 39.8923 27.4519 39.9206 27.4077 39.9384C27.401 39.738 27.737 39.6301 27.5518 39.8547ZM27.4786 38.6357C27.4145 38.2125 27.7919 37.1599 27.7859 36.5625C27.7638 34.3346 27.619 32.085 27.3808 29.8735C27.2933 29.0578 27.2669 28.2283 27.2095 27.41C27.1075 27.4192 26.9894 27.4483 26.7843 27.5011C26.8471 27.1819 27.0891 26.7963 26.9216 26.5627C26.9953 26.4968 27.0685 26.431 27.1418 26.3651C27.0927 25.5498 26.2471 13.364 26.8948 13.3494C27.172 13.3431 27.2311 15.5317 27.2466 15.8478C27.3677 15.8183 27.3191 15.9637 27.254 16.0098C27.4016 19.4186 27.4138 22.8436 27.531 26.2616C28.1826 26.1974 28.0613 26.2061 28.6793 25.8552C28.6547 26.427 28.1144 26.4165 27.8583 26.859C27.5624 27.3701 28.3954 27.0474 28.3083 27.3904C28.2522 27.6097 27.716 27.4805 27.5761 27.4499C27.6621 29.4592 27.8599 31.4441 28.0216 33.4477C28.0584 33.9056 28.1396 34.4154 28.2111 34.9338C28.2337 34.9132 28.2595 34.9124 28.2892 34.9335C28.2789 34.9922 28.2554 35.0116 28.2192 34.9936C28.3211 35.7409 28.3983 36.5026 28.2885 37.151C28.2505 37.375 27.5638 39.1801 27.4786 38.6357ZM28.8825 40.1022C28.6441 40.2938 28.6008 40.2386 28.7523 39.9363C29.0142 39.7685 29.0577 39.8237 28.8825 40.1022ZM34.7964 36.4608C34.6111 36.6039 34.2742 37.0303 33.9853 36.8774C33.9314 36.8926 33.8776 36.9075 33.824 36.9227C33.8778 36.9075 33.9317 36.8926 33.9853 36.8774L33.9858 36.8773C34.2174 36.6272 34.4491 36.3768 34.6808 36.1269C34.7623 36.1739 34.8437 36.2206 34.9249 36.2675C34.882 36.3319 34.8394 36.3964 34.7964 36.4608ZM35.0654 36.1319C35.2467 35.9532 35.428 35.7749 35.6095 35.5965C35.5462 36.0326 35.5462 36.0326 35.0654 36.1319ZM36.7076 34.4447C36.9586 34.0305 36.9586 34.0305 37.3073 34.1004C37.0272 34.4452 37.0232 34.4474 36.7076 34.4447ZM37.6447 33.3256C36.0776 35.2787 33.1649 35.7591 31.402 37.4823C31.3711 38.0121 31.2896 38.5691 30.6932 38.1636C30.7081 38.1141 30.7229 38.0643 30.7376 38.015C30.5826 38.1312 28.1832 40.1126 27.917 39.8557C27.3776 39.3363 35.2517 34.7039 35.9506 34.2019C36.0701 33.6993 35.9051 33.5006 36.4557 33.289C36.4634 33.4861 36.4386 33.6894 36.3682 33.9018C36.5419 33.7907 37.6417 32.7151 37.8071 32.8611C37.7532 33.0162 37.699 33.1708 37.6447 33.3256ZM36.1322 31.5104C36.2286 31.5002 36.3253 31.4899 36.422 31.4798L36.4223 31.48C36.3254 31.49 36.2286 31.5003 36.1322 31.5104ZM36.7856 32.1371C36.8262 32.2794 36.7882 32.4442 36.6756 32.6319C36.4106 32.5488 36.4158 32.5244 36.7856 32.1371ZM37.5898 28.2494C37.6235 28.2113 37.6793 28.1897 37.7259 28.1611C37.7143 28.2392 37.6978 28.3865 37.5745 28.362C37.5783 28.3239 37.5677 28.2746 37.5898 28.2494ZM37.4476 26.5143C37.6346 26.2735 37.6433 26.2715 37.7069 26.4575C37.6204 26.4766 37.534 26.4957 37.4476 26.5143ZM38.0511 18.6673C37.8294 18.8515 37.6301 18.6864 37.8786 18.5346C38.1155 18.39 38.1729 18.4341 38.0511 18.6673ZM38.9811 28.4764C38.9818 28.6608 39.0253 32.7915 38.7222 32.7692C38.3263 32.7403 38.4971 16.198 38.3812 15.0276C38.2916 15.0349 38.2161 15.0161 38.1633 14.9566C38.254 14.8973 38.3158 14.8579 38.3626 14.8349C38.305 14.2606 38.3078 13.6809 38.2885 13.1045C38.2112 13.1071 38.134 13.1095 38.0569 13.1122C37.9196 13.2571 37.7819 13.4019 37.6443 13.5466C37.5141 13.7143 37.4015 13.8956 37.3079 14.0916L37.2815 14.0983C37.1412 14.1933 37.0321 14.3111 36.9536 14.4511C36.6822 14.5239 36.6964 14.3945 36.7836 14.2256L36.7833 14.2254C36.7654 14.2091 36.7463 14.1949 36.7262 14.1822C36.7465 14.1949 36.7655 14.2092 36.7833 14.2254C36.918 14.1033 37.0702 14.0163 37.2394 13.9639C37.2318 13.6655 37.2917 13.3821 37.6371 13.5539C37.6396 13.5515 37.6419 13.5489 37.6442 13.5465C37.766 13.3895 37.903 13.2444 38.0567 13.1121C38.063 12.9061 38.0177 12.6813 38.2774 12.5877C38.289 11.3865 38.117 10.1963 38.1817 8.99797C38.1729 8.99453 38.1632 8.99338 38.1547 8.98936C38.1649 8.98162 38.1732 8.97315 38.1835 8.9654C38.2293 8.07773 38.4468 6.76718 37.9698 5.99513C37.6891 5.74352 37.6618 5.64053 37.888 5.68557C38.7657 6.00374 38.7011 7.51742 38.7431 8.23538C38.7665 8.20397 38.7903 8.17255 38.8159 8.14243C38.9953 8.31615 39.1746 8.48973 39.3541 8.6633C39.2936 8.81378 39.2207 8.93413 39.1348 9.04689C39.1393 9.04961 39.1439 9.05119 39.1485 9.05406C39.0495 9.15935 38.9507 9.26435 38.8514 9.36921C38.9586 9.25574 39.0526 9.15476 39.1348 9.04689C39.0137 8.97487 38.8907 8.9512 38.7662 8.97845C38.6374 15.3486 38.9157 21.767 38.9784 28.1475C39.1755 28.1157 39.1729 28.2942 39.1666 28.4766L39.199 28.4837C39.1284 28.466 39.0556 28.4634 38.9811 28.4764ZM37.6135 9.56775C37.615 9.57306 37.6182 9.57463 37.6202 9.57879C37.6493 9.56244 37.6371 8.56389 38.0227 8.70361C38.3091 8.80718 37.7107 9.76025 37.6202 9.57879C37.6182 9.57994 37.6161 9.57679 37.6135 9.56775ZM39.232 10.6129C39.128 10.7212 39.0237 10.8294 38.9199 10.9376C38.9372 10.6519 38.952 10.6366 39.232 10.6129ZM39.1775 14.7963C39.1055 14.8216 39.0408 14.8022 39.0028 14.8019C38.4767 14.2748 39.7565 14.5938 39.1775 14.7963ZM38.9269 13.3059C38.9483 13.093 39.0648 12.6795 39.3694 12.8375C39.4105 12.9735 39.4509 13.1095 39.4918 13.2452C39.5363 13.2512 39.5932 13.2432 39.6218 13.267C40.0299 13.6016 38.6773 13.2465 38.9269 13.3059Z" fill="#DAC29C"/>
</svg>
