<svg width="32" height="33" viewBox="0 0 32 33" fill="none" xmlns="http://www.w3.org/2000/svg">
<path d="M9.29037 21.8873H9.79037V21.3873V11.5809V5.38731C9.79037 4.87147 10.1657 4.43226 10.6752 4.35182L30.288 1.25508C30.288 1.25508 30.288 1.25507 30.288 1.25507C30.592 1.20714 30.8996 1.29438 31.1326 1.4935C31.3657 1.69273 31.5 1.98403 31.5 2.29056V8.48413V20.3551V24.4841C31.5 27.2984 28.9873 29.6616 25.8065 29.6616C22.6257 29.6616 20.1129 27.2985 20.1129 24.4841C20.1129 21.6698 22.6257 19.3067 25.8065 19.3067H28.9032H29.4032V18.8067V10.2961V9.71099L28.8253 9.80225L12.3091 12.4101L11.8871 12.4767V12.9039V22.9357V27.0648C11.8871 29.8791 9.37439 32.2422 6.19356 32.2422C3.01274 32.2422 0.5 29.8791 0.5 27.0648C0.5 24.2505 3.01273 21.8874 6.19356 21.8873H9.29037Z" stroke="#854D15"/>
</svg>
