<svg width="32" height="33" viewBox="0 0 32 33" fill="none" xmlns="http://www.w3.org/2000/svg">
<path d="M31.4574 1.11338C31.1133 0.819315 30.6585 0.69044 30.2101 0.76119L10.5972 3.85794C9.84469 3.97675 9.29037 4.62544 9.29037 5.38731V11.5809V21.3873H6.19356C2.77844 21.3874 0 23.9343 0 27.0648C0 30.1953 2.77844 32.7422 6.19356 32.7422C9.60869 32.7422 12.3871 30.1953 12.3871 27.0648V22.9357V12.9039L28.9032 10.2961V18.8067H25.8065C22.3914 18.8067 19.6129 21.3536 19.6129 24.4841C19.6129 27.6147 22.3914 30.1616 25.8065 30.1616C29.2216 30.1616 32 27.6146 32 24.4841V20.3551V8.48413V2.29056C32 1.83775 31.8017 1.40756 31.4574 1.11338Z" fill="#854D15"/>
</svg>
