<svg width="32" height="33" viewBox="0 0 32 33" fill="none" xmlns="http://www.w3.org/2000/svg">
<g clip-path="url(#clip0_125_17060)">
<path d="M16.9033 1.34927L9.96537 7.24476L7.12989 9.66059H2.10057C1.54391 9.66202 1.01046 9.88607 0.616846 10.2837C0.223222 10.6814 0.00144776 11.2204 0 11.7827V21.6953C-1.89075e-06 22.2586 0.221133 22.799 0.614909 23.1978C1.00869 23.5967 1.54297 23.8216 2.10057 23.823H7.12989L9.96537 26.2222L16.9033 32.1288C17.2791 32.4489 17.7377 32.6538 18.2249 32.7194C18.7122 32.7849 19.2078 32.7084 19.6534 32.4987C20.099 32.289 20.4759 31.955 20.7399 31.5361C21.0038 31.1171 21.1436 30.6306 21.1429 30.1341V3.34398C21.1414 2.84834 21.0002 2.36338 20.7359 1.94583C20.4715 1.52828 20.095 1.19542 19.6502 0.986168C19.2055 0.776919 18.711 0.699943 18.2245 0.764245C17.7381 0.828548 17.2798 1.03147 16.9033 1.34927Z" fill="#854D15"/>
<path d="M27.2828 10.9449C26.9855 10.6321 26.5827 10.4565 26.1628 10.4565C25.7429 10.4565 25.3402 10.6321 25.0428 10.9449C24.8936 11.0987 24.7751 11.2824 24.6941 11.4852C24.6131 11.688 24.5714 11.9058 24.5714 12.1259C24.5714 12.3459 24.6131 12.5637 24.6941 12.7665C24.7751 12.9693 24.8936 13.153 25.0428 13.3068C25.9338 14.2508 26.4339 15.5284 26.4339 16.8601C26.4339 18.1919 25.9338 19.4695 25.0428 20.4135C24.8936 20.5673 24.7751 20.751 24.6941 20.9538C24.6131 21.1566 24.5714 21.3744 24.5714 21.5944C24.5714 21.8145 24.6131 22.0323 24.6941 22.2351C24.7751 22.4379 24.8936 22.6216 25.0428 22.7754C25.1868 22.9315 25.3596 23.0547 25.5506 23.1374C25.7415 23.2201 25.9465 23.2605 26.1529 23.2561C26.3623 23.2609 26.5704 23.2207 26.7646 23.1381C26.9588 23.0555 27.1351 22.9321 27.2828 22.7754C28.7668 21.2045 29.6 19.0775 29.6 16.8601C29.6 14.6428 28.7668 12.5158 27.2828 10.9449Z" fill="#854D15"/>
</g>
<defs>
<clipPath id="clip0_125_17060">
<rect width="32" height="32" fill="white" transform="translate(0 0.742188)"/>
</clipPath>
</defs>
</svg>
