<svg width="32" height="33" viewBox="0 0 32 33" fill="none" xmlns="http://www.w3.org/2000/svg">
<g clip-path="url(#clip0_125_17070)">
<path d="M7.314 10.1606H7.12989H2.10117C1.67859 10.1619 1.27261 10.332 0.9722 10.6355L0.616846 10.2837L0.972197 10.6355C0.671602 10.9392 0.501269 11.3518 0.5 11.7834V21.6953C0.499999 22.1279 0.669854 22.5418 0.970722 22.8466C1.27127 23.151 1.67789 23.3217 2.10117 23.323C2.10139 23.323 2.10162 23.323 2.10185 23.323L7.12989 23.323H7.31304L7.45285 23.4413L10.2883 25.8405L10.2895 25.8415L17.2274 31.748L17.2276 31.7482C17.5306 32.0064 17.8998 32.1712 18.2916 32.2239C18.6833 32.2765 19.0818 32.215 19.4405 32.0463C19.7992 31.8775 20.1035 31.6083 20.3168 31.2696C20.5302 30.9308 20.6435 30.5371 20.6429 30.1348V30.1341L7.314 10.1606ZM7.314 10.1606L7.45415 10.0412M7.314 10.1606L7.45415 10.0412M7.45415 10.0412L10.2891 7.62578L10.2896 7.62535M7.45415 10.0412L10.2896 7.62535M10.2896 7.62535L17.2258 1.73133C17.226 1.73118 17.2262 1.73103 17.2264 1.73088C17.53 1.47474 17.899 1.31163 18.29 1.25993C18.6813 1.20821 19.0792 1.27008 19.4374 1.43859C19.7956 1.60713 20.0996 1.8756 20.3134 2.21328L10.2896 7.62535Z" stroke="#854D15"/>
<path d="M26.5036 16.7422L26.1501 17.0957L24.8099 18.4359C24.3967 18.8491 24.3967 19.519 24.8099 19.9322L24.8099 19.9323C25.2231 20.3455 25.8931 20.3455 26.3064 19.9323L27.6464 18.5921L28 18.2386L28.3536 18.5921L29.6937 19.9323C30.1069 20.3455 30.7769 20.3455 31.19 19.9323C31.6033 19.519 31.6033 18.8491 31.19 18.4359L29.8499 17.0957L29.4964 16.7422L29.8499 16.3886L31.19 15.0485L31.1901 15.0484C31.6033 14.6353 31.6033 13.9653 31.1901 13.5521L31.19 13.5521C30.7768 13.1389 30.1069 13.1389 29.6937 13.5521L29.6937 13.5521L28.6996 14.5463L28.3536 14.8923L28 15.2458L27.6464 14.8923L27.4646 14.7104L26.3063 13.5521C26.3063 13.5521 26.3063 13.5521 26.3063 13.5521C25.8931 13.1389 25.2232 13.1389 24.8099 13.5521C24.8099 13.5521 24.8099 13.5521 24.8099 13.5521M26.5036 16.7422L24.4563 13.1985L24.8099 13.5521M26.5036 16.7422L26.1501 16.3886L24.8099 15.0485C24.3967 14.6353 24.3967 13.9654 24.8099 13.5521M26.5036 16.7422L24.8099 13.5521" stroke="#854D15"/>
</g>
<defs>
<clipPath id="clip0_125_17070">
<rect width="32" height="32" fill="white" transform="translate(0 0.742188)"/>
</clipPath>
</defs>
</svg>
